<?xml version="1.0" encoding="UTF-8" standalone="no"?>
<svg width="278px" height="238px" viewBox="0 0 278 238" version="1.1" xmlns="http://www.w3.org/2000/svg" xmlns:xlink="http://www.w3.org/1999/xlink" xmlns:sketch="http://www.bohemiancoding.com/sketch/ns">
    <!-- Generator: Sketch 3.4.2 (15857) - http://www.bohemiancoding.com/sketch -->
    <title>bubble-tea</title>
    <desc>Created with Sketch.</desc>
    <defs>
        <filter x="-50%" y="-50%" width="200%" height="200%" filterUnits="objectBoundingBox" id="filter-1">
            <feOffset dx="0" dy="2" in="SourceAlpha" result="shadowOffsetOuter1"></feOffset>
            <feGaussianBlur stdDeviation="2" in="shadowOffsetOuter1" result="shadowBlurOuter1"></feGaussianBlur>
            <feColorMatrix values="0 0 0 0 0   0 0 0 0 0   0 0 0 0 0  0 0 0 0.35 0" in="shadowBlurOuter1" type="matrix" result="shadowMatrixOuter1"></feColorMatrix>
            <feMerge>
                <feMergeNode in="shadowMatrixOuter1"></feMergeNode>
                <feMergeNode in="SourceGraphic"></feMergeNode>
            </feMerge>
        </filter>
        <filter x="-50%" y="-50%" width="200%" height="200%" filterUnits="objectBoundingBox" id="filter-2">
            <feOffset dx="0" dy="2" in="SourceAlpha" result="shadowOffsetOuter1"></feOffset>
            <feGaussianBlur stdDeviation="2" in="shadowOffsetOuter1" result="shadowBlurOuter1"></feGaussianBlur>
            <feColorMatrix values="0 0 0 0 0   0 0 0 0 0   0 0 0 0 0  0 0 0 0.35 0" in="shadowBlurOuter1" type="matrix" result="shadowMatrixOuter1"></feColorMatrix>
            <feMerge>
                <feMergeNode in="shadowMatrixOuter1"></feMergeNode>
                <feMergeNode in="SourceGraphic"></feMergeNode>
            </feMerge>
        </filter>
        <filter x="-50%" y="-50%" width="200%" height="200%" filterUnits="objectBoundingBox" id="filter-3">
            <feOffset dx="0" dy="2" in="SourceAlpha" result="shadowOffsetOuter1"></feOffset>
            <feGaussianBlur stdDeviation="2" in="shadowOffsetOuter1" result="shadowBlurOuter1"></feGaussianBlur>
            <feColorMatrix values="0 0 0 0 0   0 0 0 0 0   0 0 0 0 0  0 0 0 0.35 0" in="shadowBlurOuter1" type="matrix" result="shadowMatrixOuter1"></feColorMatrix>
            <feMerge>
                <feMergeNode in="shadowMatrixOuter1"></feMergeNode>
                <feMergeNode in="SourceGraphic"></feMergeNode>
            </feMerge>
        </filter>
        <filter x="-50%" y="-50%" width="200%" height="200%" filterUnits="objectBoundingBox" id="filter-4">
            <feOffset dx="0" dy="2" in="SourceAlpha" result="shadowOffsetOuter1"></feOffset>
            <feGaussianBlur stdDeviation="2" in="shadowOffsetOuter1" result="shadowBlurOuter1"></feGaussianBlur>
            <feColorMatrix values="0 0 0 0 0   0 0 0 0 0   0 0 0 0 0  0 0 0 0.35 0" in="shadowBlurOuter1" type="matrix" result="shadowMatrixOuter1"></feColorMatrix>
            <feMerge>
                <feMergeNode in="shadowMatrixOuter1"></feMergeNode>
                <feMergeNode in="SourceGraphic"></feMergeNode>
            </feMerge>
        </filter>
        <filter x="-50%" y="-50%" width="200%" height="200%" filterUnits="objectBoundingBox" id="filter-5">
            <feOffset dx="0" dy="2" in="SourceAlpha" result="shadowOffsetOuter1"></feOffset>
            <feGaussianBlur stdDeviation="2" in="shadowOffsetOuter1" result="shadowBlurOuter1"></feGaussianBlur>
            <feColorMatrix values="0 0 0 0 0   0 0 0 0 0   0 0 0 0 0  0 0 0 0.35 0" in="shadowBlurOuter1" type="matrix" result="shadowMatrixOuter1"></feColorMatrix>
            <feMerge>
                <feMergeNode in="shadowMatrixOuter1"></feMergeNode>
                <feMergeNode in="SourceGraphic"></feMergeNode>
            </feMerge>
        </filter>
        <filter x="-50%" y="-50%" width="200%" height="200%" filterUnits="objectBoundingBox" id="filter-6">
            <feOffset dx="0" dy="2" in="SourceAlpha" result="shadowOffsetOuter1"></feOffset>
            <feGaussianBlur stdDeviation="2" in="shadowOffsetOuter1" result="shadowBlurOuter1"></feGaussianBlur>
            <feColorMatrix values="0 0 0 0 0   0 0 0 0 0   0 0 0 0 0  0 0 0 0.35 0" in="shadowBlurOuter1" type="matrix" result="shadowMatrixOuter1"></feColorMatrix>
            <feMerge>
                <feMergeNode in="shadowMatrixOuter1"></feMergeNode>
                <feMergeNode in="SourceGraphic"></feMergeNode>
            </feMerge>
        </filter>
        <filter x="-50%" y="-50%" width="200%" height="200%" filterUnits="objectBoundingBox" id="filter-7">
            <feOffset dx="0" dy="2" in="SourceAlpha" result="shadowOffsetOuter1"></feOffset>
            <feGaussianBlur stdDeviation="2" in="shadowOffsetOuter1" result="shadowBlurOuter1"></feGaussianBlur>
            <feColorMatrix values="0 0 0 0 0   0 0 0 0 0   0 0 0 0 0  0 0 0 0.35 0" in="shadowBlurOuter1" type="matrix" result="shadowMatrixOuter1"></feColorMatrix>
            <feMerge>
                <feMergeNode in="shadowMatrixOuter1"></feMergeNode>
                <feMergeNode in="SourceGraphic"></feMergeNode>
            </feMerge>
        </filter>
        <filter x="-50%" y="-50%" width="200%" height="200%" filterUnits="objectBoundingBox" id="filter-8">
            <feOffset dx="0" dy="2" in="SourceAlpha" result="shadowOffsetOuter1"></feOffset>
            <feGaussianBlur stdDeviation="2" in="shadowOffsetOuter1" result="shadowBlurOuter1"></feGaussianBlur>
            <feColorMatrix values="0 0 0 0 0   0 0 0 0 0   0 0 0 0 0  0 0 0 0.35 0" in="shadowBlurOuter1" type="matrix" result="shadowMatrixOuter1"></feColorMatrix>
            <feMerge>
                <feMergeNode in="shadowMatrixOuter1"></feMergeNode>
                <feMergeNode in="SourceGraphic"></feMergeNode>
            </feMerge>
        </filter>
        <filter x="-50%" y="-50%" width="200%" height="200%" filterUnits="objectBoundingBox" id="filter-9">
            <feOffset dx="0" dy="2" in="SourceAlpha" result="shadowOffsetOuter1"></feOffset>
            <feGaussianBlur stdDeviation="2" in="shadowOffsetOuter1" result="shadowBlurOuter1"></feGaussianBlur>
            <feColorMatrix values="0 0 0 0 0   0 0 0 0 0   0 0 0 0 0  0 0 0 0.35 0" in="shadowBlurOuter1" type="matrix" result="shadowMatrixOuter1"></feColorMatrix>
            <feMerge>
                <feMergeNode in="shadowMatrixOuter1"></feMergeNode>
                <feMergeNode in="SourceGraphic"></feMergeNode>
            </feMerge>
        </filter>
        <filter x="-50%" y="-50%" width="200%" height="200%" filterUnits="objectBoundingBox" id="filter-10">
            <feOffset dx="0" dy="2" in="SourceAlpha" result="shadowOffsetOuter1"></feOffset>
            <feGaussianBlur stdDeviation="2" in="shadowOffsetOuter1" result="shadowBlurOuter1"></feGaussianBlur>
            <feColorMatrix values="0 0 0 0 0   0 0 0 0 0   0 0 0 0 0  0 0 0 0.35 0" in="shadowBlurOuter1" type="matrix" result="shadowMatrixOuter1"></feColorMatrix>
            <feMerge>
                <feMergeNode in="shadowMatrixOuter1"></feMergeNode>
                <feMergeNode in="SourceGraphic"></feMergeNode>
            </feMerge>
        </filter>
    </defs>
    <g id="Page-1" stroke="none" stroke-width="1" fill="none" fill-rule="evenodd" sketch:type="MSPage">
        <g id="bubble-tea" sketch:type="MSLayerGroup" transform="translate(4.000000, 2.000000)">
            <g id="bubble-tea2" transform="translate(144.000000, 1.000000)" sketch:type="MSShapeGroup">
                <path d="M70,212.5 C70,216.6 66.6,220 62.5,220 L62.5,220 C58.4,220 55,216.6 55,212.5 L55,185.5 C55,181.4 58.4,178 62.5,178 L62.5,178 C66.6,178 70,181.4 70,185.5 L70,212.5 L70,212.5 Z" id="Shape" fill="#DFDFDF" filter="url(#filter-1)"></path>
                <path d="M111,136 C111,142.6 105.6,148 99,148 L27,148 C20.4,148 15,142.6 15,136 L11,55 C11,48.4 20.4,55 27,55 L99,55 C105.6,55 114,48.4 114,55 L111,136 L111,136 Z" id="Shape" fill="#DFDFDF" filter="url(#filter-2)"></path>
                <ellipse id="Oval" fill="#DFDFDF" filter="url(#filter-3)" cx="63" cy="132.5" rx="63" ry="56.5"></ellipse>
                <path d="M109.7,134.5 C109.7,140.8 104.599,146 98.2,146 L29.4,146 C23.099,146 17.9,140.8 17.9,134.5 L14,57 C14,51 23,57 29.3,57 L98.1,57 C104.401,57 112.401,51 112.401,57 L109.7,134.5 L109.7,134.5 Z" id="Shape" fill="#FCDFA5"></path>
                <ellipse id="Oval" fill="#FCDFA5" cx="62.8" cy="132" rx="60.2" ry="54"></ellipse>
                <circle id="Oval" fill="#3E3E3E" cx="39.5" cy="106.5" r="7.5"></circle>
                <circle id="Oval" fill="#3E3E3E" cx="55.5" cy="144.5" r="7.5"></circle>
                <circle id="Oval" fill="#3E3E3E" cx="41.5" cy="168.5" r="7.5"></circle>
                <circle id="Oval" fill="#3E3E3E" cx="49.5" cy="77.5" r="7.5"></circle>
                <circle id="Oval" fill="#3E3E3E" cx="21.5" cy="134.5" r="7.5"></circle>
                <circle id="Oval" fill="#3E3E3E" cx="70.5" cy="121.5" r="7.5"></circle>
                <circle id="Oval" fill="#3E3E3E" cx="86.5" cy="159.5" r="7.5"></circle>
                <circle id="Oval" fill="#3E3E3E" cx="80.5" cy="92.5" r="7.5"></circle>
                <circle id="Oval" fill="#3E3E3E" cx="94.5" cy="109.5" r="7.5"></circle>
                <circle id="Oval" fill="#3E3E3E" cx="110.5" cy="147.5" r="7.5"></circle>
                <circle id="Oval" fill="#3E3E3E" cx="70.5" cy="171.5" r="7.5"></circle>
                <ellipse id="Oval" fill="#DFDFDF" filter="url(#filter-4)" cx="63" cy="221.5" rx="53" ry="7.5"></ellipse>
                <path d="M80.2,180 C79.9,182.7 76.9,184.5 73.599,184.1 L73.599,184.1 C70.299,183.701 67.9,181.201 68.299,178.5 L90.5,4.6 C90.8,1.9 93.8,0.1 97.1,0.5 L97.1,0.5 C100.401,0.9 102.8,3.4 102.401,6.1 L80.2,180 L80.2,180 Z" id="Shape" opacity="0.8" fill="#FD665D" filter="url(#filter-5)"></path>
            </g>
            <g id="bubble-tea1" sketch:type="MSShapeGroup">
                <circle id="Oval" fill="#3E3E3E" cx="21.5" cy="134.5" r="7.5"></circle>
                <path d="M56,212.5 C56,216.6 59.4,220 63.5,220 L63.5,220 C67.6,220 71,216.6 71,212.5 L71,185.5 C71,181.4 67.6,178 63.5,178 L63.5,178 C59.4,178 56,181.4 56,185.5 L56,212.5 L56,212.5 Z" id="Shape" fill="#DFDFDF" filter="url(#filter-6)"></path>
                <path d="M15,136 C15,142.6 20.4,148 27,148 L99,148 C105.6,148 111,142.6 111,136 L115,55 C115,48.4 105.6,55 99,55 L27,55 C20.4,55 12,48.4 12,55 L15,136 L15,136 Z" id="Shape" fill="#DFDFDF" filter="url(#filter-7)"></path>
                <ellipse id="Oval" fill="#DFDFDF" filter="url(#filter-8)" cx="63" cy="132.5" rx="63" ry="56.5"></ellipse>
                <path d="M16.3,134.5 C16.3,140.8 21.4,146 27.8,146 L96.6,146 C102.9,146 108.1,140.8 108.1,134.5 L112,57 C112,51 103,57 96.7,57 L27.8,57 C21.5,57 13.5,51 13.5,57 L16.3,134.5 L16.3,134.5 Z" id="Shape" fill="#FD665D"></path>
                <ellipse id="Oval" fill="#FD665D" cx="63.2" cy="132" rx="60.2" ry="54"></ellipse>
                <circle id="Oval" fill="#3E3E3E" cx="86.5" cy="106.5" r="7.5"></circle>
                <circle id="Oval" fill="#3E3E3E" cx="70.5" cy="144.5" r="7.5"></circle>
                <circle id="Oval" fill="#3E3E3E" cx="84.5" cy="168.5" r="7.5"></circle>
                <circle id="Oval" fill="#3E3E3E" cx="76.5" cy="77.5" r="7.5"></circle>
                <circle id="Oval" fill="#3E3E3E" cx="55.5" cy="121.5" r="7.5"></circle>
                <circle id="Oval" fill="#3E3E3E" cx="39.5" cy="159.5" r="7.5"></circle>
                <circle id="Oval" fill="#3E3E3E" cx="45.5" cy="92.5" r="7.5"></circle>
                <circle id="Oval" fill="#3E3E3E" cx="31.5" cy="109.5" r="7.5"></circle>
                <circle id="Oval" fill="#3E3E3E" cx="15.5" cy="147.5" r="7.5"></circle>
                <circle id="Oval" fill="#3E3E3E" cx="55.5" cy="171.5" r="7.5"></circle>
                <ellipse id="Oval" fill="#DFDFDF" filter="url(#filter-9)" cx="63" cy="221.5" rx="53" ry="7.5"></ellipse>
                <path d="M45.8,180 C46.1,182.7 49.1,184.5 52.4,184.1 L52.4,184.1 C55.7,183.701 58.1,181.201 57.7,178.5 L35.5,4.6 C35.2,1.9 32.2,0.1 28.9,0.5 L28.9,0.5 C25.6,0.9 23.2,3.4 23.6,6.1 L45.8,180 L45.8,180 Z" id="Shape" opacity="0.8" fill="#FCDFA5" filter="url(#filter-10)"></path>
            </g>
        </g>
    </g>
</svg>