<?xml version="1.0" encoding="UTF-8" standalone="no"?>
<svg width="458px" height="270px" viewBox="0 0 458 270" version="1.1" xmlns="http://www.w3.org/2000/svg" xmlns:xlink="http://www.w3.org/1999/xlink" xmlns:sketch="http://www.bohemiancoding.com/sketch/ns">
    <!-- Generator: Sketch 3.4.2 (15857) - http://www.bohemiancoding.com/sketch -->
    <title>chess</title>
    <desc>Created with Sketch.</desc>
    <defs>
        <filter x="-50%" y="-50%" width="200%" height="200%" filterUnits="objectBoundingBox" id="filter-1">
            <feOffset dx="0" dy="2" in="SourceAlpha" result="shadowOffsetOuter1"></feOffset>
            <feGaussianBlur stdDeviation="2" in="shadowOffsetOuter1" result="shadowBlurOuter1"></feGaussianBlur>
            <feColorMatrix values="0 0 0 0 0   0 0 0 0 0   0 0 0 0 0  0 0 0 0.35 0" in="shadowBlurOuter1" type="matrix" result="shadowMatrixOuter1"></feColorMatrix>
            <feMerge>
                <feMergeNode in="shadowMatrixOuter1"></feMergeNode>
                <feMergeNode in="SourceGraphic"></feMergeNode>
            </feMerge>
        </filter>
        <filter x="-50%" y="-50%" width="200%" height="200%" filterUnits="objectBoundingBox" id="filter-2">
            <feOffset dx="0" dy="2" in="SourceAlpha" result="shadowOffsetOuter1"></feOffset>
            <feGaussianBlur stdDeviation="2" in="shadowOffsetOuter1" result="shadowBlurOuter1"></feGaussianBlur>
            <feColorMatrix values="0 0 0 0 0   0 0 0 0 0   0 0 0 0 0  0 0 0 0.35 0" in="shadowBlurOuter1" type="matrix" result="shadowMatrixOuter1"></feColorMatrix>
            <feMerge>
                <feMergeNode in="shadowMatrixOuter1"></feMergeNode>
                <feMergeNode in="SourceGraphic"></feMergeNode>
            </feMerge>
        </filter>
        <filter x="-50%" y="-50%" width="200%" height="200%" filterUnits="objectBoundingBox" id="filter-3">
            <feOffset dx="0" dy="2" in="SourceAlpha" result="shadowOffsetOuter1"></feOffset>
            <feGaussianBlur stdDeviation="2" in="shadowOffsetOuter1" result="shadowBlurOuter1"></feGaussianBlur>
            <feColorMatrix values="0 0 0 0 0   0 0 0 0 0   0 0 0 0 0  0 0 0 0.35 0" in="shadowBlurOuter1" type="matrix" result="shadowMatrixOuter1"></feColorMatrix>
            <feMerge>
                <feMergeNode in="shadowMatrixOuter1"></feMergeNode>
                <feMergeNode in="SourceGraphic"></feMergeNode>
            </feMerge>
        </filter>
        <filter x="-50%" y="-50%" width="200%" height="200%" filterUnits="objectBoundingBox" id="filter-4">
            <feOffset dx="0" dy="2" in="SourceAlpha" result="shadowOffsetOuter1"></feOffset>
            <feGaussianBlur stdDeviation="2" in="shadowOffsetOuter1" result="shadowBlurOuter1"></feGaussianBlur>
            <feColorMatrix values="0 0 0 0 0   0 0 0 0 0   0 0 0 0 0  0 0 0 0.35 0" in="shadowBlurOuter1" type="matrix" result="shadowMatrixOuter1"></feColorMatrix>
            <feMerge>
                <feMergeNode in="shadowMatrixOuter1"></feMergeNode>
                <feMergeNode in="SourceGraphic"></feMergeNode>
            </feMerge>
        </filter>
        <filter x="-50%" y="-50%" width="200%" height="200%" filterUnits="objectBoundingBox" id="filter-5">
            <feOffset dx="0" dy="2" in="SourceAlpha" result="shadowOffsetOuter1"></feOffset>
            <feGaussianBlur stdDeviation="2" in="shadowOffsetOuter1" result="shadowBlurOuter1"></feGaussianBlur>
            <feColorMatrix values="0 0 0 0 0   0 0 0 0 0   0 0 0 0 0  0 0 0 0.35 0" in="shadowBlurOuter1" type="matrix" result="shadowMatrixOuter1"></feColorMatrix>
            <feMerge>
                <feMergeNode in="shadowMatrixOuter1"></feMergeNode>
                <feMergeNode in="SourceGraphic"></feMergeNode>
            </feMerge>
        </filter>
        <filter x="-50%" y="-50%" width="200%" height="200%" filterUnits="objectBoundingBox" id="filter-6">
            <feOffset dx="0" dy="2" in="SourceAlpha" result="shadowOffsetOuter1"></feOffset>
            <feGaussianBlur stdDeviation="2" in="shadowOffsetOuter1" result="shadowBlurOuter1"></feGaussianBlur>
            <feColorMatrix values="0 0 0 0 0   0 0 0 0 0   0 0 0 0 0  0 0 0 0.35 0" in="shadowBlurOuter1" type="matrix" result="shadowMatrixOuter1"></feColorMatrix>
            <feMerge>
                <feMergeNode in="shadowMatrixOuter1"></feMergeNode>
                <feMergeNode in="SourceGraphic"></feMergeNode>
            </feMerge>
        </filter>
        <filter x="-50%" y="-50%" width="200%" height="200%" filterUnits="objectBoundingBox" id="filter-7">
            <feOffset dx="0" dy="2" in="SourceAlpha" result="shadowOffsetOuter1"></feOffset>
            <feGaussianBlur stdDeviation="2" in="shadowOffsetOuter1" result="shadowBlurOuter1"></feGaussianBlur>
            <feColorMatrix values="0 0 0 0 0   0 0 0 0 0   0 0 0 0 0  0 0 0 0.35 0" in="shadowBlurOuter1" type="matrix" result="shadowMatrixOuter1"></feColorMatrix>
            <feMerge>
                <feMergeNode in="shadowMatrixOuter1"></feMergeNode>
                <feMergeNode in="SourceGraphic"></feMergeNode>
            </feMerge>
        </filter>
        <filter x="-50%" y="-50%" width="200%" height="200%" filterUnits="objectBoundingBox" id="filter-8">
            <feOffset dx="0" dy="2" in="SourceAlpha" result="shadowOffsetOuter1"></feOffset>
            <feGaussianBlur stdDeviation="2" in="shadowOffsetOuter1" result="shadowBlurOuter1"></feGaussianBlur>
            <feColorMatrix values="0 0 0 0 0   0 0 0 0 0   0 0 0 0 0  0 0 0 0.35 0" in="shadowBlurOuter1" type="matrix" result="shadowMatrixOuter1"></feColorMatrix>
            <feMerge>
                <feMergeNode in="shadowMatrixOuter1"></feMergeNode>
                <feMergeNode in="SourceGraphic"></feMergeNode>
            </feMerge>
        </filter>
        <filter x="-50%" y="-50%" width="200%" height="200%" filterUnits="objectBoundingBox" id="filter-9">
            <feOffset dx="0" dy="2" in="SourceAlpha" result="shadowOffsetOuter1"></feOffset>
            <feGaussianBlur stdDeviation="2" in="shadowOffsetOuter1" result="shadowBlurOuter1"></feGaussianBlur>
            <feColorMatrix values="0 0 0 0 0   0 0 0 0 0   0 0 0 0 0  0 0 0 0.35 0" in="shadowBlurOuter1" type="matrix" result="shadowMatrixOuter1"></feColorMatrix>
            <feMerge>
                <feMergeNode in="shadowMatrixOuter1"></feMergeNode>
                <feMergeNode in="SourceGraphic"></feMergeNode>
            </feMerge>
        </filter>
    </defs>
    <g id="Page-1" stroke="none" stroke-width="1" fill="none" fill-rule="evenodd" sketch:type="MSPage">
        <g id="chess" sketch:type="MSLayerGroup">
            <g id="knight" transform="translate(229.000000, 0.000000)" sketch:type="MSShapeGroup">
                <rect id="Rectangle-path" fill="#DFDFDF" x="0" y="0" width="229" height="270"></rect>
                <path d="M93.5,42.9 C93.5,42.9 51.3,53.4 53.4,64 C55.5,74.5 38.6,85.1 36.5,87.2 C34.4,89.3 28.1,106.2 34.4,114.6 C40.7,123 74.5,114.6 89.2,95.6 C104,76.6 95.5,112.5 91.3,127.2 C87.1,142 39.7,151.3 46,180.8 C52.3,210.3 67.4,198.2 96.9,196.1 C126.4,194 192.7,204.4 175.9,183.4 C167,172.2 168.5,113.8 159.3,81.5 C151.2,52.8 132.2,50.3 129.2,34.5 C123,0.7 93.5,42.9 93.5,42.9 L93.5,42.9 Z" id="Shape" fill="#3E3E3E" filter="url(#filter-1)"></path>
                <path d="M195,226.9 C195,239.3 186.6,238 174.1,238 L55.8,238 C43.3,238 32,239.3 32,226.9 L32,213.7 C32,201.2 43.3,192 55.8,192 L174.2,192 C186.6,192 195.1,201.3 195.1,213.7 L195.1,226.9 L195,226.9 Z" id="Shape" fill="#3E3E3E" filter="url(#filter-2)"></path>
                <path d="M186,188 C186,190.8 183.8,193 181,193 L45,193 C42.2,193 40,190.8 40,188 L40,188 C40,185.2 42.2,183 45,183 L181,183 C183.8,183 186,185.2 186,188 L186,188 L186,188 Z" id="Shape" fill="#999999" filter="url(#filter-3)"></path>
                <path d="M89.7,64.5 C90.9,66.7 90.1,69.4 87.9,70.5 L82.3,73.5 C80.1,74.7 77.4,73.9 76.3,71.7 L76.3,71.7 C75.1,69.5 75.9,66.8 78.1,65.7 L83.7,62.7 C85.9,61.5 88.6,62.3 89.7,64.5 L89.7,64.5 L89.7,64.5 Z" id="Shape" fill="#999999" filter="url(#filter-4)"></path>
            </g>
            <g id="pawn" sketch:type="MSShapeGroup">
                <rect id="Rectangle-path" fill="#639495" x="0" y="0" width="229" height="270"></rect>
                <circle id="Oval" fill="#FFFFFF" filter="url(#filter-5)" cx="114.6" cy="77.7" r="21.7"></circle>
                <path d="M140.7,104.5 C140.7,107.3 138.4,110 135.6,110 L94.9,110 C92.1,110 89.8,107.3 89.8,104.5 L89.8,104.5 C89.8,101.7 99.7,99 102.5,99 L128,99 C130.8,99 140.7,101.7 140.7,104.5 L140.7,104.5 L140.7,104.5 Z" id="Shape" fill="#DFDFDF" filter="url(#filter-6)"></path>
                <path d="M146.5,181.4 C135.9,181.4 127.4,149 127.4,108 L103.2,108 C103.2,149 94.7,181.6 84.1,181.6 L146.5,181.4 L146.5,181.4 Z" id="Shape" fill="#FFFFFF" filter="url(#filter-7)"></path>
                <path d="M148,185.2 C148,187.3 146.3,189 144.2,189 L85.8,189 C83.7,189 82,187.3 82,185.2 L82,184.8 C82,182.7 83.7,181 85.8,181 L144.2,181 C146.3,181 148,182.7 148,184.8 L148,185.2 L148,185.2 Z" id="Shape" fill="#DFDFDF" filter="url(#filter-8)"></path>
                <path d="M160,206.4 C160,213.3 155.7,213 148.8,213 L83.2,213 C76.3,213 70,213.3 70,206.4 L70,199.1 C70,192.2 76.3,187 83.2,187 L148.8,187 C155.7,187 160,192.2 160,199.1 L160,206.4 L160,206.4 Z" id="Shape" fill="#FFFFFF" filter="url(#filter-9)"></path>
            </g>
        </g>
    </g>
</svg>