<?xml version="1.0" encoding="UTF-8" standalone="no"?>
<svg width="440px" height="203px" viewBox="0 0 440 203" version="1.1" xmlns="http://www.w3.org/2000/svg" xmlns:xlink="http://www.w3.org/1999/xlink" xmlns:sketch="http://www.bohemiancoding.com/sketch/ns">
    <!-- Generator: Sketch 3.4.2 (15857) - http://www.bohemiancoding.com/sketch -->
    <title>computers</title>
    <desc>Created with Sketch.</desc>
    <defs>
        <filter x="-50%" y="-50%" width="200%" height="200%" filterUnits="objectBoundingBox" id="filter-1">
            <feOffset dx="0" dy="2" in="SourceAlpha" result="shadowOffsetOuter1"></feOffset>
            <feGaussianBlur stdDeviation="2" in="shadowOffsetOuter1" result="shadowBlurOuter1"></feGaussianBlur>
            <feColorMatrix values="0 0 0 0 0   0 0 0 0 0   0 0 0 0 0  0 0 0 0.35 0" in="shadowBlurOuter1" type="matrix" result="shadowMatrixOuter1"></feColorMatrix>
            <feMerge>
                <feMergeNode in="shadowMatrixOuter1"></feMergeNode>
                <feMergeNode in="SourceGraphic"></feMergeNode>
            </feMerge>
        </filter>
        <filter x="-50%" y="-50%" width="200%" height="200%" filterUnits="objectBoundingBox" id="filter-2">
            <feOffset dx="0" dy="2" in="SourceAlpha" result="shadowOffsetOuter1"></feOffset>
            <feGaussianBlur stdDeviation="2" in="shadowOffsetOuter1" result="shadowBlurOuter1"></feGaussianBlur>
            <feColorMatrix values="0 0 0 0 0   0 0 0 0 0   0 0 0 0 0  0 0 0 0.35 0" in="shadowBlurOuter1" type="matrix" result="shadowMatrixOuter1"></feColorMatrix>
            <feMerge>
                <feMergeNode in="shadowMatrixOuter1"></feMergeNode>
                <feMergeNode in="SourceGraphic"></feMergeNode>
            </feMerge>
        </filter>
        <filter x="-50%" y="-50%" width="200%" height="200%" filterUnits="objectBoundingBox" id="filter-3">
            <feOffset dx="0" dy="2" in="SourceAlpha" result="shadowOffsetOuter1"></feOffset>
            <feGaussianBlur stdDeviation="2" in="shadowOffsetOuter1" result="shadowBlurOuter1"></feGaussianBlur>
            <feColorMatrix values="0 0 0 0 0   0 0 0 0 0   0 0 0 0 0  0 0 0 0.35 0" in="shadowBlurOuter1" type="matrix" result="shadowMatrixOuter1"></feColorMatrix>
            <feMerge>
                <feMergeNode in="shadowMatrixOuter1"></feMergeNode>
                <feMergeNode in="SourceGraphic"></feMergeNode>
            </feMerge>
        </filter>
        <filter x="-50%" y="-50%" width="200%" height="200%" filterUnits="objectBoundingBox" id="filter-4">
            <feOffset dx="0" dy="2" in="SourceAlpha" result="shadowOffsetOuter1"></feOffset>
            <feGaussianBlur stdDeviation="2" in="shadowOffsetOuter1" result="shadowBlurOuter1"></feGaussianBlur>
            <feColorMatrix values="0 0 0 0 0   0 0 0 0 0   0 0 0 0 0  0 0 0 0.35 0" in="shadowBlurOuter1" type="matrix" result="shadowMatrixOuter1"></feColorMatrix>
            <feMerge>
                <feMergeNode in="shadowMatrixOuter1"></feMergeNode>
                <feMergeNode in="SourceGraphic"></feMergeNode>
            </feMerge>
        </filter>
        <filter x="-50%" y="-50%" width="200%" height="200%" filterUnits="objectBoundingBox" id="filter-5">
            <feOffset dx="0" dy="2" in="SourceAlpha" result="shadowOffsetOuter1"></feOffset>
            <feGaussianBlur stdDeviation="2" in="shadowOffsetOuter1" result="shadowBlurOuter1"></feGaussianBlur>
            <feColorMatrix values="0 0 0 0 0   0 0 0 0 0   0 0 0 0 0  0 0 0 0.35 0" in="shadowBlurOuter1" type="matrix" result="shadowMatrixOuter1"></feColorMatrix>
            <feMerge>
                <feMergeNode in="shadowMatrixOuter1"></feMergeNode>
                <feMergeNode in="SourceGraphic"></feMergeNode>
            </feMerge>
        </filter>
        <filter x="-50%" y="-50%" width="200%" height="200%" filterUnits="objectBoundingBox" id="filter-6">
            <feOffset dx="0" dy="2" in="SourceAlpha" result="shadowOffsetOuter1"></feOffset>
            <feGaussianBlur stdDeviation="2" in="shadowOffsetOuter1" result="shadowBlurOuter1"></feGaussianBlur>
            <feColorMatrix values="0 0 0 0 0   0 0 0 0 0   0 0 0 0 0  0 0 0 0.35 0" in="shadowBlurOuter1" type="matrix" result="shadowMatrixOuter1"></feColorMatrix>
            <feMerge>
                <feMergeNode in="shadowMatrixOuter1"></feMergeNode>
                <feMergeNode in="SourceGraphic"></feMergeNode>
            </feMerge>
        </filter>
        <filter x="-50%" y="-50%" width="200%" height="200%" filterUnits="objectBoundingBox" id="filter-7">
            <feOffset dx="0" dy="2" in="SourceAlpha" result="shadowOffsetOuter1"></feOffset>
            <feGaussianBlur stdDeviation="2" in="shadowOffsetOuter1" result="shadowBlurOuter1"></feGaussianBlur>
            <feColorMatrix values="0 0 0 0 0   0 0 0 0 0   0 0 0 0 0  0 0 0 0.35 0" in="shadowBlurOuter1" type="matrix" result="shadowMatrixOuter1"></feColorMatrix>
            <feMerge>
                <feMergeNode in="shadowMatrixOuter1"></feMergeNode>
                <feMergeNode in="SourceGraphic"></feMergeNode>
            </feMerge>
        </filter>
        <filter x="-50%" y="-50%" width="200%" height="200%" filterUnits="objectBoundingBox" id="filter-8">
            <feOffset dx="0" dy="2" in="SourceAlpha" result="shadowOffsetOuter1"></feOffset>
            <feGaussianBlur stdDeviation="2" in="shadowOffsetOuter1" result="shadowBlurOuter1"></feGaussianBlur>
            <feColorMatrix values="0 0 0 0 0   0 0 0 0 0   0 0 0 0 0  0 0 0 0.35 0" in="shadowBlurOuter1" type="matrix" result="shadowMatrixOuter1"></feColorMatrix>
            <feMerge>
                <feMergeNode in="shadowMatrixOuter1"></feMergeNode>
                <feMergeNode in="SourceGraphic"></feMergeNode>
            </feMerge>
        </filter>
        <filter x="-50%" y="-50%" width="200%" height="200%" filterUnits="objectBoundingBox" id="filter-9">
            <feOffset dx="0" dy="2" in="SourceAlpha" result="shadowOffsetOuter1"></feOffset>
            <feGaussianBlur stdDeviation="2" in="shadowOffsetOuter1" result="shadowBlurOuter1"></feGaussianBlur>
            <feColorMatrix values="0 0 0 0 0   0 0 0 0 0   0 0 0 0 0  0 0 0 0.35 0" in="shadowBlurOuter1" type="matrix" result="shadowMatrixOuter1"></feColorMatrix>
            <feMerge>
                <feMergeNode in="shadowMatrixOuter1"></feMergeNode>
                <feMergeNode in="SourceGraphic"></feMergeNode>
            </feMerge>
        </filter>
        <filter x="-50%" y="-50%" width="200%" height="200%" filterUnits="objectBoundingBox" id="filter-10">
            <feOffset dx="0" dy="2" in="SourceAlpha" result="shadowOffsetOuter1"></feOffset>
            <feGaussianBlur stdDeviation="2" in="shadowOffsetOuter1" result="shadowBlurOuter1"></feGaussianBlur>
            <feColorMatrix values="0 0 0 0 0   0 0 0 0 0   0 0 0 0 0  0 0 0 0.35 0" in="shadowBlurOuter1" type="matrix" result="shadowMatrixOuter1"></feColorMatrix>
            <feMerge>
                <feMergeNode in="shadowMatrixOuter1"></feMergeNode>
                <feMergeNode in="SourceGraphic"></feMergeNode>
            </feMerge>
        </filter>
        <filter x="-50%" y="-50%" width="200%" height="200%" filterUnits="objectBoundingBox" id="filter-11">
            <feOffset dx="0" dy="2" in="SourceAlpha" result="shadowOffsetOuter1"></feOffset>
            <feGaussianBlur stdDeviation="2" in="shadowOffsetOuter1" result="shadowBlurOuter1"></feGaussianBlur>
            <feColorMatrix values="0 0 0 0 0   0 0 0 0 0   0 0 0 0 0  0 0 0 0.35 0" in="shadowBlurOuter1" type="matrix" result="shadowMatrixOuter1"></feColorMatrix>
            <feMerge>
                <feMergeNode in="shadowMatrixOuter1"></feMergeNode>
                <feMergeNode in="SourceGraphic"></feMergeNode>
            </feMerge>
        </filter>
    </defs>
    <g id="Page-1" stroke="none" stroke-width="1" fill="none" fill-rule="evenodd" sketch:type="MSPage">
        <g id="computers" sketch:type="MSLayerGroup" transform="translate(4.000000, -24.000000)">
            <g id="computer2" transform="translate(256.000000, 56.000000)" sketch:type="MSShapeGroup">
                <rect id="Rectangle-path" fill="#3E3E3E" filter="url(#filter-1)" x="68" y="80" width="39" height="35"></rect>
                <path d="M176,97.5 C176,103.3 174.7,106 168.9,106 L8.1,106 C2.3,106 -2.84217094e-14,103.3 -2.84217094e-14,97.5 L-2.84217094e-14,10.1 C-2.84217094e-14,4.3 2.3,0 8.1,0 L168.9,0 C174.7,0 176,1.7 176,7.5 L176,97.5 L176,97.5 Z" id="Shape" fill="#3E3E3E" filter="url(#filter-2)"></path>
                <rect id="Rectangle-path" fill="#DFDFDF" filter="url(#filter-3)" x="5" y="7" width="166" height="91"></rect>
                <path d="M123,118.7 C123,121.1 122.2,124 120.5,124 L57.4,124 C55.8,124 53,121.1 53,118.7 L53,118.4 C53,116 55.8,115 57.4,115 L120.5,115 C122.1,115 123,116.1 123,118.4 L123,118.7 L123,118.7 Z" id="Shape" fill="#3E3E3E" filter="url(#filter-4)"></path>
                <path d="M174.2,154 C174.2,159.8 169.5,165 163.7,165 L13.4,165 C7.6,165 2.9,159.8 2.9,154 L7.3,136 C7.3,130.2 12,125 17.8,125 L159.4,125 C165.2,125 169.9,130.2 169.9,136 L174.2,154 L174.2,154 Z" id="Shape" fill="#3E3E3E" filter="url(#filter-5)"></path>
                <path d="M69.3055156,62.5868578 L79.4450203,62.5868578 L83.5356359,47.6169453 L73.4396484,47.6169453 L74.7886812,42.5689516 L84.8846688,42.5689516 L90.0632141,23.0732516 L96.547275,23.0732516 L91.2816953,42.5689516 L100.898994,42.5689516 L106.251608,23.0732516 L112.648634,23.0732516 L107.383055,42.5689516 L117.479042,42.5689516 L116.130009,47.6169453 L106.034022,47.6169453 L101.899889,62.5868578 L112.039394,62.5868578 L110.690361,67.6348516 L100.681408,67.6348516 L95.3287938,87 L88.9317672,87 L94.1973469,67.6348516 L84.4930141,67.6348516 L79.3144688,87 L72.8304078,87 L78.0959875,67.6348516 L68,67.6348516 L69.3055156,62.5868578 Z M95.4158281,62.5868578 L99.5499609,47.6169453 L89.9326625,47.6169453 L85.9290812,62.5868578 L95.4158281,62.5868578 Z" id="#" fill="#3E3E3E"></path>
            </g>
            <g id="computer1" transform="translate(0.000000, 56.000000)" sketch:type="MSShapeGroup">
                <rect id="Rectangle-path" fill="#3E3E3E" filter="url(#filter-6)" x="68" y="80" width="38" height="35"></rect>
                <path d="M176,97.5 C176,103.3 174.5,106 168.7,106 L7.9,106 C2.1,106 0,103.3 0,97.5 L0,10.1 C0,4.3 2.1,0 7.9,0 L168.7,0 C174.5,0 176,1.7 176,7.5 L176,97.5 L176,97.5 Z" id="Shape" fill="#3E3E3E" filter="url(#filter-7)"></path>
                <rect id="Rectangle-path" fill="#DFDFDF" filter="url(#filter-8)" x="5" y="7" width="166" height="91"></rect>
                <path d="M123,118.7 C123,121.1 121.9,124 120.3,124 L57.2,124 C55.6,124 53,121.1 53,118.7 L53,118.4 C53,116 55.5,115 57.2,115 L120.3,115 C121.9,115 123,116.1 123,118.4 L123,118.7 L123,118.7 Z" id="Shape" fill="#3E3E3E" filter="url(#filter-9)"></path>
                <path d="M174,154 C174,159.8 169.3,165 163.5,165 L13.1,165 C7.3,165 2.6,159.8 2.6,154 L7,136 C7,130.2 11.7,125 17.5,125 L159.1,125 C164.9,125 169.6,130.2 169.6,136 L174,154 L174,154 Z" id="Shape" fill="#3E3E3E" filter="url(#filter-10)"></path>
                <path d="M80.8701734,21.4834516 L89.7041625,21.4834516 L89.7041625,42.5022531 L87.5718203,70.1791844 L83.1330672,70.1791844 L80.8701734,42.5022531 L80.8701734,21.4834516 Z M80.8701734,76.358625 L89.5300938,76.358625 L89.5300938,85.4102 L80.8701734,85.4102 L80.8701734,76.358625 Z" id="!" fill="#3E3E3E"></path>
            </g>
            <polygon id="star" stroke="#D8D8D8" fill="#FCDFA5" filter="url(#filter-11)" sketch:type="MSShapeGroup" transform="translate(217.500000, 79.500000) scale(-1, 1) rotate(-335.000000) translate(-217.500000, -79.500000) " points="217.5 109.25 182.526777 127.636511 189.206069 88.6932556 160.912137 61.1134888 200.013389 55.4317444 217.5 20 234.986611 55.4317444 274.087863 61.1134888 245.793931 88.6932556 252.473223 127.636511 "></polygon>
        </g>
    </g>
</svg>