<?xml version="1.0" encoding="UTF-8" standalone="no"?>
<svg width="223px" height="201px" viewBox="0 0 223 201" version="1.1" xmlns="http://www.w3.org/2000/svg" xmlns:xlink="http://www.w3.org/1999/xlink" xmlns:sketch="http://www.bohemiancoding.com/sketch/ns">
    <!-- Generator: Sketch 3.4.2 (15857) - http://www.bohemiancoding.com/sketch -->
    <title>heart</title>
    <desc>Created with Sketch.</desc>
    <defs></defs>
    <g id="Page-1" stroke="none" stroke-width="1" fill="none" fill-rule="evenodd" sketch:type="MSPage">
        <g id="heart" sketch:type="MSLayerGroup" transform="translate(4.000000, -22.000000)">
            <g id="svg2">
                <g id="layer1">
                    <path d="M98.9418431,206.870993 C94.3264028,201.685911 82.8018644,191.57751 73.331769,184.407886 C45.2726203,163.164864 41.4537642,160.090567 30.0611677,149.573824 C9.05820167,130.185539 0.138587449,110.706668 0.169153403,84.2948695 C0.18406738,71.4016811 1.06066538,66.4343378 4.66224593,58.8344648 C10.7726017,45.9406505 19.7734592,36.3595338 31.2810524,30.4996635 C39.4314768,26.3493392 43.4512539,24.5054185 57.061915,24.4299814 C71.2996409,24.3511004 74.2968506,26.0153431 82.6719925,30.6279785 C92.8659745,36.2423411 103.358453,48.2412056 105.527396,56.7646639 L106.866992,62.0290448 L110.170542,54.7787787 C128.838702,13.807903 188.439591,14.4208814 209.181012,55.7970933 C215.760774,68.9227927 216.48315,96.949437 210.648607,112.736701 C203.037669,133.330604 188.742497,149.031024 155.696935,173.090314 C134.025095,188.868825 109.49752,212.742082 107.790087,216.095107 C105.808057,219.987374 107.695547,216.70507 98.9418431,206.870993 L98.9418431,206.870993 Z" id="path2417" fill="#FF0000" sketch:type="MSShapeGroup"></path>
                    <g id="g2221" transform="translate(42.648123, 0.239930)"></g>
                </g>
            </g>
        </g>
    </g>
</svg>