<?xml version="1.0" encoding="UTF-8" standalone="no"?>
<svg width="404px" height="122px" viewBox="0 0 404 122" version="1.1" xmlns="http://www.w3.org/2000/svg" xmlns:xlink="http://www.w3.org/1999/xlink" xmlns:sketch="http://www.bohemiancoding.com/sketch/ns">
    <!-- Generator: Sketch 3.4.2 (15857) - http://www.bohemiancoding.com/sketch -->
    <title>plane</title>
    <desc>Created with Sketch.</desc>
    <defs></defs>
    <g id="Page-1" stroke="none" stroke-width="1" fill="none" fill-rule="evenodd" sketch:type="MSPage">
        <g id="plane" sketch:type="MSLayerGroup" transform="translate(6.000000, 1.000000)">
            <g id="Layer_1" sketch:type="MSShapeGroup">
                <path d="M86.2,96 C86.2,96 104.5,84.5 114.6,75.8 C124.7,67 121.9,79.2 131.1,82.5 C140.3,85.9 112.8,105.5 86.2,96 L86.2,96 Z" id="Shape" fill="#3E3E3E"></path>
                <path d="M139.4,107.5 C139.4,107.5 121.1,100.1 136.6,83.9 C152.2,67.7 144.9,87.9 153.1,87.3 C161.3,86.7 155.9,102.8 139.4,107.5 L139.4,107.5 Z" id="Shape" fill="#3E3E3E"></path>
                <path d="M322.3,102.8 C316.8,118.9 240.2,118.4 151.4,101.9 C62.6,85.4 -5,58.8 0.5,42.8 C6,26.7 82.6,27.2 171.4,43.7 C260.3,60.3 327.9,86.7 322.3,102.8 L322.3,102.8 Z" id="Shape" fill="#3E3E3E"></path>
                <ellipse id="Oval" fill="#3E3E3E" cx="287.1" cy="67.4" rx="107.3" ry="11.8"></ellipse>
                <path d="M252.2,113.2 C252.2,113.2 308.1,3.6 319.2,1 C330.2,-1.6 332,93.4 332,96.8 C332,100.3 266.9,120.1 252.2,113.2 L252.2,113.2 Z" id="Shape" fill="#3E3E3E"></path>
                <circle id="Oval" fill="#FFFFFF" cx="92.1" cy="51.9" r="8.4"></circle>
                <circle id="Oval" fill="#FFFFFF" cx="119" cy="55.9" r="8.4"></circle>
                <circle id="Oval" fill="#FFFFFF" cx="146" cy="60.6" r="8.4"></circle>
                <circle id="Oval" fill="#FFFFFF" cx="173" cy="64.7" r="8.4"></circle>
                <circle id="Oval" fill="#FFFFFF" cx="201.3" cy="69.4" r="8.4"></circle>
                <path d="M331.8,85.2 C314.8,85.2 251.7,100.8 162.9,84.3 C74,67.7 16.1,52 0.2,43.4" id="Shape" stroke="#FFFFFF" stroke-width="10"></path>
            </g>
        </g>
    </g>
</svg>