<?xml version="1.0" encoding="UTF-8" standalone="no"?>
<svg width="901px" height="561px" viewBox="0 0 901 561" version="1.1" xmlns="http://www.w3.org/2000/svg" xmlns:xlink="http://www.w3.org/1999/xlink" xmlns:sketch="http://www.bohemiancoding.com/sketch/ns">
    <!-- Generator: Sketch 3.4.2 (15857) - http://www.bohemiancoding.com/sketch -->
    <title>travel</title>
    <desc>Created with Sketch.</desc>
    <defs>
        <filter x="-50%" y="-50%" width="200%" height="200%" filterUnits="objectBoundingBox" id="filter-1">
            <feOffset dx="0" dy="2" in="SourceAlpha" result="shadowOffsetOuter1"></feOffset>
            <feGaussianBlur stdDeviation="2" in="shadowOffsetOuter1" result="shadowBlurOuter1"></feGaussianBlur>
            <feColorMatrix values="0 0 0 0 0   0 0 0 0 0   0 0 0 0 0  0 0 0 0.35 0" in="shadowBlurOuter1" type="matrix" result="shadowMatrixOuter1"></feColorMatrix>
            <feMerge>
                <feMergeNode in="shadowMatrixOuter1"></feMergeNode>
                <feMergeNode in="SourceGraphic"></feMergeNode>
            </feMerge>
        </filter>
        <filter x="-50%" y="-50%" width="200%" height="200%" filterUnits="objectBoundingBox" id="filter-2">
            <feOffset dx="0" dy="2" in="SourceAlpha" result="shadowOffsetOuter1"></feOffset>
            <feGaussianBlur stdDeviation="2" in="shadowOffsetOuter1" result="shadowBlurOuter1"></feGaussianBlur>
            <feColorMatrix values="0 0 0 0 0   0 0 0 0 0   0 0 0 0 0  0 0 0 0.35 0" in="shadowBlurOuter1" type="matrix" result="shadowMatrixOuter1"></feColorMatrix>
            <feMerge>
                <feMergeNode in="shadowMatrixOuter1"></feMergeNode>
                <feMergeNode in="SourceGraphic"></feMergeNode>
            </feMerge>
        </filter>
        <filter x="-50%" y="-50%" width="200%" height="200%" filterUnits="objectBoundingBox" id="filter-3">
            <feOffset dx="0" dy="2" in="SourceAlpha" result="shadowOffsetOuter1"></feOffset>
            <feGaussianBlur stdDeviation="2" in="shadowOffsetOuter1" result="shadowBlurOuter1"></feGaussianBlur>
            <feColorMatrix values="0 0 0 0 0   0 0 0 0 0   0 0 0 0 0  0 0 0 0.35 0" in="shadowBlurOuter1" type="matrix" result="shadowMatrixOuter1"></feColorMatrix>
            <feMerge>
                <feMergeNode in="shadowMatrixOuter1"></feMergeNode>
                <feMergeNode in="SourceGraphic"></feMergeNode>
            </feMerge>
        </filter>
        <filter x="-50%" y="-50%" width="200%" height="200%" filterUnits="objectBoundingBox" id="filter-4">
            <feOffset dx="0" dy="2" in="SourceAlpha" result="shadowOffsetOuter1"></feOffset>
            <feGaussianBlur stdDeviation="2" in="shadowOffsetOuter1" result="shadowBlurOuter1"></feGaussianBlur>
            <feColorMatrix values="0 0 0 0 0   0 0 0 0 0   0 0 0 0 0  0 0 0 0.35 0" in="shadowBlurOuter1" type="matrix" result="shadowMatrixOuter1"></feColorMatrix>
            <feMerge>
                <feMergeNode in="shadowMatrixOuter1"></feMergeNode>
                <feMergeNode in="SourceGraphic"></feMergeNode>
            </feMerge>
        </filter>
        <filter x="-50%" y="-50%" width="200%" height="200%" filterUnits="objectBoundingBox" id="filter-5">
            <feOffset dx="0" dy="2" in="SourceAlpha" result="shadowOffsetOuter1"></feOffset>
            <feGaussianBlur stdDeviation="2" in="shadowOffsetOuter1" result="shadowBlurOuter1"></feGaussianBlur>
            <feColorMatrix values="0 0 0 0 0   0 0 0 0 0   0 0 0 0 0  0 0 0 0.35 0" in="shadowBlurOuter1" type="matrix" result="shadowMatrixOuter1"></feColorMatrix>
            <feMerge>
                <feMergeNode in="shadowMatrixOuter1"></feMergeNode>
                <feMergeNode in="SourceGraphic"></feMergeNode>
            </feMerge>
        </filter>
        <filter x="-50%" y="-50%" width="200%" height="200%" filterUnits="objectBoundingBox" id="filter-6">
            <feOffset dx="0" dy="2" in="SourceAlpha" result="shadowOffsetOuter1"></feOffset>
            <feGaussianBlur stdDeviation="2" in="shadowOffsetOuter1" result="shadowBlurOuter1"></feGaussianBlur>
            <feColorMatrix values="0 0 0 0 0   0 0 0 0 0   0 0 0 0 0  0 0 0 0.35 0" in="shadowBlurOuter1" type="matrix" result="shadowMatrixOuter1"></feColorMatrix>
            <feMerge>
                <feMergeNode in="shadowMatrixOuter1"></feMergeNode>
                <feMergeNode in="SourceGraphic"></feMergeNode>
            </feMerge>
        </filter>
        <filter x="-50%" y="-50%" width="200%" height="200%" filterUnits="objectBoundingBox" id="filter-7">
            <feOffset dx="0" dy="2" in="SourceAlpha" result="shadowOffsetOuter1"></feOffset>
            <feGaussianBlur stdDeviation="2" in="shadowOffsetOuter1" result="shadowBlurOuter1"></feGaussianBlur>
            <feColorMatrix values="0 0 0 0 0   0 0 0 0 0   0 0 0 0 0  0 0 0 0.35 0" in="shadowBlurOuter1" type="matrix" result="shadowMatrixOuter1"></feColorMatrix>
            <feMerge>
                <feMergeNode in="shadowMatrixOuter1"></feMergeNode>
                <feMergeNode in="SourceGraphic"></feMergeNode>
            </feMerge>
        </filter>
        <filter x="-50%" y="-50%" width="200%" height="200%" filterUnits="objectBoundingBox" id="filter-8">
            <feOffset dx="0" dy="2" in="SourceAlpha" result="shadowOffsetOuter1"></feOffset>
            <feGaussianBlur stdDeviation="2" in="shadowOffsetOuter1" result="shadowBlurOuter1"></feGaussianBlur>
            <feColorMatrix values="0 0 0 0 0   0 0 0 0 0   0 0 0 0 0  0 0 0 0.35 0" in="shadowBlurOuter1" type="matrix" result="shadowMatrixOuter1"></feColorMatrix>
            <feMerge>
                <feMergeNode in="shadowMatrixOuter1"></feMergeNode>
                <feMergeNode in="SourceGraphic"></feMergeNode>
            </feMerge>
        </filter>
        <filter x="-50%" y="-50%" width="200%" height="200%" filterUnits="objectBoundingBox" id="filter-9">
            <feOffset dx="0" dy="2" in="SourceAlpha" result="shadowOffsetOuter1"></feOffset>
            <feGaussianBlur stdDeviation="2" in="shadowOffsetOuter1" result="shadowBlurOuter1"></feGaussianBlur>
            <feColorMatrix values="0 0 0 0 0   0 0 0 0 0   0 0 0 0 0  0 0 0 0.35 0" in="shadowBlurOuter1" type="matrix" result="shadowMatrixOuter1"></feColorMatrix>
            <feMerge>
                <feMergeNode in="shadowMatrixOuter1"></feMergeNode>
                <feMergeNode in="SourceGraphic"></feMergeNode>
            </feMerge>
        </filter>
        <filter x="-50%" y="-50%" width="200%" height="200%" filterUnits="objectBoundingBox" id="filter-10">
            <feOffset dx="0" dy="2" in="SourceAlpha" result="shadowOffsetOuter1"></feOffset>
            <feGaussianBlur stdDeviation="2" in="shadowOffsetOuter1" result="shadowBlurOuter1"></feGaussianBlur>
            <feColorMatrix values="0 0 0 0 0   0 0 0 0 0   0 0 0 0 0  0 0 0 0.35 0" in="shadowBlurOuter1" type="matrix" result="shadowMatrixOuter1"></feColorMatrix>
            <feMerge>
                <feMergeNode in="shadowMatrixOuter1"></feMergeNode>
                <feMergeNode in="SourceGraphic"></feMergeNode>
            </feMerge>
        </filter>
        <filter x="-50%" y="-50%" width="200%" height="200%" filterUnits="objectBoundingBox" id="filter-11">
            <feOffset dx="0" dy="2" in="SourceAlpha" result="shadowOffsetOuter1"></feOffset>
            <feGaussianBlur stdDeviation="2" in="shadowOffsetOuter1" result="shadowBlurOuter1"></feGaussianBlur>
            <feColorMatrix values="0 0 0 0 0   0 0 0 0 0   0 0 0 0 0  0 0 0 0.35 0" in="shadowBlurOuter1" type="matrix" result="shadowMatrixOuter1"></feColorMatrix>
            <feMerge>
                <feMergeNode in="shadowMatrixOuter1"></feMergeNode>
                <feMergeNode in="SourceGraphic"></feMergeNode>
            </feMerge>
        </filter>
        <filter x="-50%" y="-50%" width="200%" height="200%" filterUnits="objectBoundingBox" id="filter-12">
            <feOffset dx="0" dy="2" in="SourceAlpha" result="shadowOffsetOuter1"></feOffset>
            <feGaussianBlur stdDeviation="2" in="shadowOffsetOuter1" result="shadowBlurOuter1"></feGaussianBlur>
            <feColorMatrix values="0 0 0 0 0   0 0 0 0 0   0 0 0 0 0  0 0 0 0.35 0" in="shadowBlurOuter1" type="matrix" result="shadowMatrixOuter1"></feColorMatrix>
            <feMerge>
                <feMergeNode in="shadowMatrixOuter1"></feMergeNode>
                <feMergeNode in="SourceGraphic"></feMergeNode>
            </feMerge>
        </filter>
        <filter x="-50%" y="-50%" width="200%" height="200%" filterUnits="objectBoundingBox" id="filter-13">
            <feOffset dx="0" dy="2" in="SourceAlpha" result="shadowOffsetOuter1"></feOffset>
            <feGaussianBlur stdDeviation="2" in="shadowOffsetOuter1" result="shadowBlurOuter1"></feGaussianBlur>
            <feColorMatrix values="0 0 0 0 0   0 0 0 0 0   0 0 0 0 0  0 0 0 0.35 0" in="shadowBlurOuter1" type="matrix" result="shadowMatrixOuter1"></feColorMatrix>
            <feMerge>
                <feMergeNode in="shadowMatrixOuter1"></feMergeNode>
                <feMergeNode in="SourceGraphic"></feMergeNode>
            </feMerge>
        </filter>
        <filter x="-50%" y="-50%" width="200%" height="200%" filterUnits="objectBoundingBox" id="filter-14">
            <feOffset dx="0" dy="2" in="SourceAlpha" result="shadowOffsetOuter1"></feOffset>
            <feGaussianBlur stdDeviation="2" in="shadowOffsetOuter1" result="shadowBlurOuter1"></feGaussianBlur>
            <feColorMatrix values="0 0 0 0 0   0 0 0 0 0   0 0 0 0 0  0 0 0 0.35 0" in="shadowBlurOuter1" type="matrix" result="shadowMatrixOuter1"></feColorMatrix>
            <feMerge>
                <feMergeNode in="shadowMatrixOuter1"></feMergeNode>
                <feMergeNode in="SourceGraphic"></feMergeNode>
            </feMerge>
        </filter>
        <filter x="-50%" y="-50%" width="200%" height="200%" filterUnits="objectBoundingBox" id="filter-15">
            <feOffset dx="0" dy="2" in="SourceAlpha" result="shadowOffsetOuter1"></feOffset>
            <feGaussianBlur stdDeviation="2" in="shadowOffsetOuter1" result="shadowBlurOuter1"></feGaussianBlur>
            <feColorMatrix values="0 0 0 0 0   0 0 0 0 0   0 0 0 0 0  0 0 0 0.35 0" in="shadowBlurOuter1" type="matrix" result="shadowMatrixOuter1"></feColorMatrix>
            <feMerge>
                <feMergeNode in="shadowMatrixOuter1"></feMergeNode>
                <feMergeNode in="SourceGraphic"></feMergeNode>
            </feMerge>
        </filter>
        <filter x="-50%" y="-50%" width="200%" height="200%" filterUnits="objectBoundingBox" id="filter-16">
            <feOffset dx="0" dy="2" in="SourceAlpha" result="shadowOffsetOuter1"></feOffset>
            <feGaussianBlur stdDeviation="2" in="shadowOffsetOuter1" result="shadowBlurOuter1"></feGaussianBlur>
            <feColorMatrix values="0 0 0 0 0   0 0 0 0 0   0 0 0 0 0  0 0 0 0.35 0" in="shadowBlurOuter1" type="matrix" result="shadowMatrixOuter1"></feColorMatrix>
            <feMerge>
                <feMergeNode in="shadowMatrixOuter1"></feMergeNode>
                <feMergeNode in="SourceGraphic"></feMergeNode>
            </feMerge>
        </filter>
        <filter x="-50%" y="-50%" width="200%" height="200%" filterUnits="objectBoundingBox" id="filter-17">
            <feOffset dx="0" dy="2" in="SourceAlpha" result="shadowOffsetOuter1"></feOffset>
            <feGaussianBlur stdDeviation="2" in="shadowOffsetOuter1" result="shadowBlurOuter1"></feGaussianBlur>
            <feColorMatrix values="0 0 0 0 0   0 0 0 0 0   0 0 0 0 0  0 0 0 0.35 0" in="shadowBlurOuter1" type="matrix" result="shadowMatrixOuter1"></feColorMatrix>
            <feMerge>
                <feMergeNode in="shadowMatrixOuter1"></feMergeNode>
                <feMergeNode in="SourceGraphic"></feMergeNode>
            </feMerge>
        </filter>
        <filter x="-50%" y="-50%" width="200%" height="200%" filterUnits="objectBoundingBox" id="filter-18">
            <feOffset dx="0" dy="2" in="SourceAlpha" result="shadowOffsetOuter1"></feOffset>
            <feGaussianBlur stdDeviation="2" in="shadowOffsetOuter1" result="shadowBlurOuter1"></feGaussianBlur>
            <feColorMatrix values="0 0 0 0 0   0 0 0 0 0   0 0 0 0 0  0 0 0 0.35 0" in="shadowBlurOuter1" type="matrix" result="shadowMatrixOuter1"></feColorMatrix>
            <feMerge>
                <feMergeNode in="shadowMatrixOuter1"></feMergeNode>
                <feMergeNode in="SourceGraphic"></feMergeNode>
            </feMerge>
        </filter>
        <filter x="-50%" y="-50%" width="200%" height="200%" filterUnits="objectBoundingBox" id="filter-19">
            <feOffset dx="0" dy="2" in="SourceAlpha" result="shadowOffsetOuter1"></feOffset>
            <feGaussianBlur stdDeviation="2" in="shadowOffsetOuter1" result="shadowBlurOuter1"></feGaussianBlur>
            <feColorMatrix values="0 0 0 0 0   0 0 0 0 0   0 0 0 0 0  0 0 0 0.35 0" in="shadowBlurOuter1" type="matrix" result="shadowMatrixOuter1"></feColorMatrix>
            <feMerge>
                <feMergeNode in="shadowMatrixOuter1"></feMergeNode>
                <feMergeNode in="SourceGraphic"></feMergeNode>
            </feMerge>
        </filter>
        <filter x="-50%" y="-50%" width="200%" height="200%" filterUnits="objectBoundingBox" id="filter-20">
            <feOffset dx="0" dy="2" in="SourceAlpha" result="shadowOffsetOuter1"></feOffset>
            <feGaussianBlur stdDeviation="2" in="shadowOffsetOuter1" result="shadowBlurOuter1"></feGaussianBlur>
            <feColorMatrix values="0 0 0 0 0   0 0 0 0 0   0 0 0 0 0  0 0 0 0.35 0" in="shadowBlurOuter1" type="matrix" result="shadowMatrixOuter1"></feColorMatrix>
            <feMerge>
                <feMergeNode in="shadowMatrixOuter1"></feMergeNode>
                <feMergeNode in="SourceGraphic"></feMergeNode>
            </feMerge>
        </filter>
        <filter x="-50%" y="-50%" width="200%" height="200%" filterUnits="objectBoundingBox" id="filter-21">
            <feOffset dx="0" dy="2" in="SourceAlpha" result="shadowOffsetOuter1"></feOffset>
            <feGaussianBlur stdDeviation="2" in="shadowOffsetOuter1" result="shadowBlurOuter1"></feGaussianBlur>
            <feColorMatrix values="0 0 0 0 0   0 0 0 0 0   0 0 0 0 0  0 0 0 0.35 0" in="shadowBlurOuter1" type="matrix" result="shadowMatrixOuter1"></feColorMatrix>
            <feMerge>
                <feMergeNode in="shadowMatrixOuter1"></feMergeNode>
                <feMergeNode in="SourceGraphic"></feMergeNode>
            </feMerge>
        </filter>
        <filter x="-50%" y="-50%" width="200%" height="200%" filterUnits="objectBoundingBox" id="filter-22">
            <feOffset dx="0" dy="2" in="SourceAlpha" result="shadowOffsetOuter1"></feOffset>
            <feGaussianBlur stdDeviation="2" in="shadowOffsetOuter1" result="shadowBlurOuter1"></feGaussianBlur>
            <feColorMatrix values="0 0 0 0 0   0 0 0 0 0   0 0 0 0 0  0 0 0 0.35 0" in="shadowBlurOuter1" type="matrix" result="shadowMatrixOuter1"></feColorMatrix>
            <feMerge>
                <feMergeNode in="shadowMatrixOuter1"></feMergeNode>
                <feMergeNode in="SourceGraphic"></feMergeNode>
            </feMerge>
        </filter>
        <filter x="-50%" y="-50%" width="200%" height="200%" filterUnits="objectBoundingBox" id="filter-23">
            <feOffset dx="0" dy="2" in="SourceAlpha" result="shadowOffsetOuter1"></feOffset>
            <feGaussianBlur stdDeviation="2" in="shadowOffsetOuter1" result="shadowBlurOuter1"></feGaussianBlur>
            <feColorMatrix values="0 0 0 0 0   0 0 0 0 0   0 0 0 0 0  0 0 0 0.35 0" in="shadowBlurOuter1" type="matrix" result="shadowMatrixOuter1"></feColorMatrix>
            <feMerge>
                <feMergeNode in="shadowMatrixOuter1"></feMergeNode>
                <feMergeNode in="SourceGraphic"></feMergeNode>
            </feMerge>
        </filter>
        <filter x="-50%" y="-50%" width="200%" height="200%" filterUnits="objectBoundingBox" id="filter-24">
            <feOffset dx="0" dy="2" in="SourceAlpha" result="shadowOffsetOuter1"></feOffset>
            <feGaussianBlur stdDeviation="2" in="shadowOffsetOuter1" result="shadowBlurOuter1"></feGaussianBlur>
            <feColorMatrix values="0 0 0 0 0   0 0 0 0 0   0 0 0 0 0  0 0 0 0.35 0" in="shadowBlurOuter1" type="matrix" result="shadowMatrixOuter1"></feColorMatrix>
            <feMerge>
                <feMergeNode in="shadowMatrixOuter1"></feMergeNode>
                <feMergeNode in="SourceGraphic"></feMergeNode>
            </feMerge>
        </filter>
        <filter x="-50%" y="-50%" width="200%" height="200%" filterUnits="objectBoundingBox" id="filter-25">
            <feOffset dx="0" dy="2" in="SourceAlpha" result="shadowOffsetOuter1"></feOffset>
            <feGaussianBlur stdDeviation="2" in="shadowOffsetOuter1" result="shadowBlurOuter1"></feGaussianBlur>
            <feColorMatrix values="0 0 0 0 0   0 0 0 0 0   0 0 0 0 0  0 0 0 0.35 0" in="shadowBlurOuter1" type="matrix" result="shadowMatrixOuter1"></feColorMatrix>
            <feMerge>
                <feMergeNode in="shadowMatrixOuter1"></feMergeNode>
                <feMergeNode in="SourceGraphic"></feMergeNode>
            </feMerge>
        </filter>
        <filter x="-50%" y="-50%" width="200%" height="200%" filterUnits="objectBoundingBox" id="filter-26">
            <feOffset dx="0" dy="2" in="SourceAlpha" result="shadowOffsetOuter1"></feOffset>
            <feGaussianBlur stdDeviation="2" in="shadowOffsetOuter1" result="shadowBlurOuter1"></feGaussianBlur>
            <feColorMatrix values="0 0 0 0 0   0 0 0 0 0   0 0 0 0 0  0 0 0 0.35 0" in="shadowBlurOuter1" type="matrix" result="shadowMatrixOuter1"></feColorMatrix>
            <feMerge>
                <feMergeNode in="shadowMatrixOuter1"></feMergeNode>
                <feMergeNode in="SourceGraphic"></feMergeNode>
            </feMerge>
        </filter>
        <filter x="-50%" y="-50%" width="200%" height="200%" filterUnits="objectBoundingBox" id="filter-27">
            <feOffset dx="0" dy="2" in="SourceAlpha" result="shadowOffsetOuter1"></feOffset>
            <feGaussianBlur stdDeviation="2" in="shadowOffsetOuter1" result="shadowBlurOuter1"></feGaussianBlur>
            <feColorMatrix values="0 0 0 0 0   0 0 0 0 0   0 0 0 0 0  0 0 0 0.35 0" in="shadowBlurOuter1" type="matrix" result="shadowMatrixOuter1"></feColorMatrix>
            <feMerge>
                <feMergeNode in="shadowMatrixOuter1"></feMergeNode>
                <feMergeNode in="SourceGraphic"></feMergeNode>
            </feMerge>
        </filter>
        <filter x="-50%" y="-50%" width="200%" height="200%" filterUnits="objectBoundingBox" id="filter-28">
            <feOffset dx="0" dy="2" in="SourceAlpha" result="shadowOffsetOuter1"></feOffset>
            <feGaussianBlur stdDeviation="2" in="shadowOffsetOuter1" result="shadowBlurOuter1"></feGaussianBlur>
            <feColorMatrix values="0 0 0 0 0   0 0 0 0 0   0 0 0 0 0  0 0 0 0.35 0" in="shadowBlurOuter1" type="matrix" result="shadowMatrixOuter1"></feColorMatrix>
            <feMerge>
                <feMergeNode in="shadowMatrixOuter1"></feMergeNode>
                <feMergeNode in="SourceGraphic"></feMergeNode>
            </feMerge>
        </filter>
        <filter x="-50%" y="-50%" width="200%" height="200%" filterUnits="objectBoundingBox" id="filter-29">
            <feOffset dx="0" dy="1" in="SourceAlpha" result="shadowOffsetOuter1"></feOffset>
            <feGaussianBlur stdDeviation="2" in="shadowOffsetOuter1" result="shadowBlurOuter1"></feGaussianBlur>
            <feColorMatrix values="0 0 0 0 0   0 0 0 0 0   0 0 0 0 0  0 0 0 0.35 0" in="shadowBlurOuter1" type="matrix" result="shadowMatrixOuter1"></feColorMatrix>
            <feMerge>
                <feMergeNode in="shadowMatrixOuter1"></feMergeNode>
                <feMergeNode in="SourceGraphic"></feMergeNode>
            </feMerge>
        </filter>
        <filter x="-50%" y="-50%" width="200%" height="200%" filterUnits="objectBoundingBox" id="filter-30">
            <feOffset dx="0" dy="2" in="SourceAlpha" result="shadowOffsetOuter1"></feOffset>
            <feGaussianBlur stdDeviation="2" in="shadowOffsetOuter1" result="shadowBlurOuter1"></feGaussianBlur>
            <feColorMatrix values="0 0 0 0 0   0 0 0 0 0   0 0 0 0 0  0 0 0 0.35 0" in="shadowBlurOuter1" type="matrix" result="shadowMatrixOuter1"></feColorMatrix>
            <feMerge>
                <feMergeNode in="shadowMatrixOuter1"></feMergeNode>
                <feMergeNode in="SourceGraphic"></feMergeNode>
            </feMerge>
        </filter>
        <filter x="-50%" y="-50%" width="200%" height="200%" filterUnits="objectBoundingBox" id="filter-31">
            <feOffset dx="0" dy="2" in="SourceAlpha" result="shadowOffsetOuter1"></feOffset>
            <feGaussianBlur stdDeviation="2" in="shadowOffsetOuter1" result="shadowBlurOuter1"></feGaussianBlur>
            <feColorMatrix values="0 0 0 0 0   0 0 0 0 0   0 0 0 0 0  0 0 0 0.35 0" in="shadowBlurOuter1" type="matrix" result="shadowMatrixOuter1"></feColorMatrix>
            <feMerge>
                <feMergeNode in="shadowMatrixOuter1"></feMergeNode>
                <feMergeNode in="SourceGraphic"></feMergeNode>
            </feMerge>
        </filter>
        <filter x="-50%" y="-50%" width="200%" height="200%" filterUnits="objectBoundingBox" id="filter-32">
            <feOffset dx="0" dy="2" in="SourceAlpha" result="shadowOffsetOuter1"></feOffset>
            <feGaussianBlur stdDeviation="2" in="shadowOffsetOuter1" result="shadowBlurOuter1"></feGaussianBlur>
            <feColorMatrix values="0 0 0 0 0   0 0 0 0 0   0 0 0 0 0  0 0 0 0.35 0" in="shadowBlurOuter1" type="matrix" result="shadowMatrixOuter1"></feColorMatrix>
            <feMerge>
                <feMergeNode in="shadowMatrixOuter1"></feMergeNode>
                <feMergeNode in="SourceGraphic"></feMergeNode>
            </feMerge>
        </filter>
        <filter x="-50%" y="-50%" width="200%" height="200%" filterUnits="objectBoundingBox" id="filter-33">
            <feOffset dx="0" dy="2" in="SourceAlpha" result="shadowOffsetOuter1"></feOffset>
            <feGaussianBlur stdDeviation="2" in="shadowOffsetOuter1" result="shadowBlurOuter1"></feGaussianBlur>
            <feColorMatrix values="0 0 0 0 0   0 0 0 0 0   0 0 0 0 0  0 0 0 0.35 0" in="shadowBlurOuter1" type="matrix" result="shadowMatrixOuter1"></feColorMatrix>
            <feMerge>
                <feMergeNode in="shadowMatrixOuter1"></feMergeNode>
                <feMergeNode in="SourceGraphic"></feMergeNode>
            </feMerge>
        </filter>
        <filter x="-50%" y="-50%" width="200%" height="200%" filterUnits="objectBoundingBox" id="filter-34">
            <feOffset dx="0" dy="2" in="SourceAlpha" result="shadowOffsetOuter1"></feOffset>
            <feGaussianBlur stdDeviation="2" in="shadowOffsetOuter1" result="shadowBlurOuter1"></feGaussianBlur>
            <feColorMatrix values="0 0 0 0 0   0 0 0 0 0   0 0 0 0 0  0 0 0 0.35 0" in="shadowBlurOuter1" type="matrix" result="shadowMatrixOuter1"></feColorMatrix>
            <feMerge>
                <feMergeNode in="shadowMatrixOuter1"></feMergeNode>
                <feMergeNode in="SourceGraphic"></feMergeNode>
            </feMerge>
        </filter>
        <filter x="-50%" y="-50%" width="200%" height="200%" filterUnits="objectBoundingBox" id="filter-35">
            <feOffset dx="0" dy="2" in="SourceAlpha" result="shadowOffsetOuter1"></feOffset>
            <feGaussianBlur stdDeviation="2" in="shadowOffsetOuter1" result="shadowBlurOuter1"></feGaussianBlur>
            <feColorMatrix values="0 0 0 0 0   0 0 0 0 0   0 0 0 0 0  0 0 0 0.35 0" in="shadowBlurOuter1" type="matrix" result="shadowMatrixOuter1"></feColorMatrix>
            <feMerge>
                <feMergeNode in="shadowMatrixOuter1"></feMergeNode>
                <feMergeNode in="SourceGraphic"></feMergeNode>
            </feMerge>
        </filter>
        <filter x="-50%" y="-50%" width="200%" height="200%" filterUnits="objectBoundingBox" id="filter-36">
            <feOffset dx="0" dy="2" in="SourceAlpha" result="shadowOffsetOuter1"></feOffset>
            <feGaussianBlur stdDeviation="2" in="shadowOffsetOuter1" result="shadowBlurOuter1"></feGaussianBlur>
            <feColorMatrix values="0 0 0 0 0   0 0 0 0 0   0 0 0 0 0  0 0 0 0.35 0" in="shadowBlurOuter1" type="matrix" result="shadowMatrixOuter1"></feColorMatrix>
            <feMerge>
                <feMergeNode in="shadowMatrixOuter1"></feMergeNode>
                <feMergeNode in="SourceGraphic"></feMergeNode>
            </feMerge>
        </filter>
        <filter x="-50%" y="-50%" width="200%" height="200%" filterUnits="objectBoundingBox" id="filter-37">
            <feOffset dx="0" dy="2" in="SourceAlpha" result="shadowOffsetOuter1"></feOffset>
            <feGaussianBlur stdDeviation="2" in="shadowOffsetOuter1" result="shadowBlurOuter1"></feGaussianBlur>
            <feColorMatrix values="0 0 0 0 0   0 0 0 0 0   0 0 0 0 0  0 0 0 0.35 0" in="shadowBlurOuter1" type="matrix" result="shadowMatrixOuter1"></feColorMatrix>
            <feMerge>
                <feMergeNode in="shadowMatrixOuter1"></feMergeNode>
                <feMergeNode in="SourceGraphic"></feMergeNode>
            </feMerge>
        </filter>
        <filter x="-50%" y="-50%" width="200%" height="200%" filterUnits="objectBoundingBox" id="filter-38">
            <feOffset dx="0" dy="2" in="SourceAlpha" result="shadowOffsetOuter1"></feOffset>
            <feGaussianBlur stdDeviation="2" in="shadowOffsetOuter1" result="shadowBlurOuter1"></feGaussianBlur>
            <feColorMatrix values="0 0 0 0 0   0 0 0 0 0   0 0 0 0 0  0 0 0 0.35 0" in="shadowBlurOuter1" type="matrix" result="shadowMatrixOuter1"></feColorMatrix>
            <feMerge>
                <feMergeNode in="shadowMatrixOuter1"></feMergeNode>
                <feMergeNode in="SourceGraphic"></feMergeNode>
            </feMerge>
        </filter>
        <filter x="-50%" y="-50%" width="200%" height="200%" filterUnits="objectBoundingBox" id="filter-39">
            <feOffset dx="0" dy="2" in="SourceAlpha" result="shadowOffsetOuter1"></feOffset>
            <feGaussianBlur stdDeviation="2" in="shadowOffsetOuter1" result="shadowBlurOuter1"></feGaussianBlur>
            <feColorMatrix values="0 0 0 0 0   0 0 0 0 0   0 0 0 0 0  0 0 0 0.35 0" in="shadowBlurOuter1" type="matrix" result="shadowMatrixOuter1"></feColorMatrix>
            <feMerge>
                <feMergeNode in="shadowMatrixOuter1"></feMergeNode>
                <feMergeNode in="SourceGraphic"></feMergeNode>
            </feMerge>
        </filter>
        <filter x="-50%" y="-50%" width="200%" height="200%" filterUnits="objectBoundingBox" id="filter-40">
            <feOffset dx="0" dy="2" in="SourceAlpha" result="shadowOffsetOuter1"></feOffset>
            <feGaussianBlur stdDeviation="2" in="shadowOffsetOuter1" result="shadowBlurOuter1"></feGaussianBlur>
            <feColorMatrix values="0 0 0 0 0   0 0 0 0 0   0 0 0 0 0  0 0 0 0.35 0" in="shadowBlurOuter1" type="matrix" result="shadowMatrixOuter1"></feColorMatrix>
            <feMerge>
                <feMergeNode in="shadowMatrixOuter1"></feMergeNode>
                <feMergeNode in="SourceGraphic"></feMergeNode>
            </feMerge>
        </filter>
        <filter x="-50%" y="-50%" width="200%" height="200%" filterUnits="objectBoundingBox" id="filter-41">
            <feOffset dx="0" dy="2" in="SourceAlpha" result="shadowOffsetOuter1"></feOffset>
            <feGaussianBlur stdDeviation="2" in="shadowOffsetOuter1" result="shadowBlurOuter1"></feGaussianBlur>
            <feColorMatrix values="0 0 0 0 0   0 0 0 0 0   0 0 0 0 0  0 0 0 0.35 0" in="shadowBlurOuter1" type="matrix" result="shadowMatrixOuter1"></feColorMatrix>
            <feMerge>
                <feMergeNode in="shadowMatrixOuter1"></feMergeNode>
                <feMergeNode in="SourceGraphic"></feMergeNode>
            </feMerge>
        </filter>
        <filter x="-50%" y="-50%" width="200%" height="200%" filterUnits="objectBoundingBox" id="filter-42">
            <feOffset dx="0" dy="2" in="SourceAlpha" result="shadowOffsetOuter1"></feOffset>
            <feGaussianBlur stdDeviation="2" in="shadowOffsetOuter1" result="shadowBlurOuter1"></feGaussianBlur>
            <feColorMatrix values="0 0 0 0 0   0 0 0 0 0   0 0 0 0 0  0 0 0 0.35 0" in="shadowBlurOuter1" type="matrix" result="shadowMatrixOuter1"></feColorMatrix>
            <feMerge>
                <feMergeNode in="shadowMatrixOuter1"></feMergeNode>
                <feMergeNode in="SourceGraphic"></feMergeNode>
            </feMerge>
        </filter>
        <filter x="-50%" y="-50%" width="200%" height="200%" filterUnits="objectBoundingBox" id="filter-43">
            <feOffset dx="0" dy="2" in="SourceAlpha" result="shadowOffsetOuter1"></feOffset>
            <feGaussianBlur stdDeviation="2" in="shadowOffsetOuter1" result="shadowBlurOuter1"></feGaussianBlur>
            <feColorMatrix values="0 0 0 0 0   0 0 0 0 0   0 0 0 0 0  0 0 0 0.35 0" in="shadowBlurOuter1" type="matrix" result="shadowMatrixOuter1"></feColorMatrix>
            <feMerge>
                <feMergeNode in="shadowMatrixOuter1"></feMergeNode>
                <feMergeNode in="SourceGraphic"></feMergeNode>
            </feMerge>
        </filter>
    </defs>
    <g id="Page-1" stroke="none" stroke-width="1" fill="none" fill-rule="evenodd" sketch:type="MSPage">
        <g id="travel" sketch:type="MSLayerGroup" transform="translate(4.000000, 2.000000)">
            <g id="building" sketch:type="MSShapeGroup">
                <rect id="Rectangle-path" fill="#3E3E3E" filter="url(#filter-1)" x="0" y="0" width="192" height="479"></rect>
                <rect id="Rectangle-path" fill="#FFFFFF" filter="url(#filter-2)" x="20" y="44" width="64" height="64"></rect>
                <rect id="Rectangle-path" fill="#FFFFFF" filter="url(#filter-3)" x="108" y="44" width="64" height="64"></rect>
                <rect id="Rectangle-path" fill="#FFFFFF" filter="url(#filter-4)" x="20" y="127" width="64" height="64"></rect>
                <rect id="Rectangle-path" fill="#FFFFFF" filter="url(#filter-5)" x="108" y="127" width="64" height="64"></rect>
                <rect id="Rectangle-path" fill="#FFFFFF" filter="url(#filter-6)" x="20" y="210" width="64" height="64"></rect>
                <rect id="Rectangle-path" fill="#FFFFFF" filter="url(#filter-7)" x="108" y="210" width="64" height="64"></rect>
                <rect id="Rectangle-path" fill="#FFFFFF" filter="url(#filter-8)" x="20" y="294" width="64" height="64"></rect>
                <rect id="Rectangle-path" fill="#FFFFFF" filter="url(#filter-9)" x="108" y="294" width="64" height="64"></rect>
                <rect id="Rectangle-path" fill="#FFFFFF" filter="url(#filter-10)" x="20" y="371" width="64" height="103"></rect>
                <rect id="Rectangle-path" fill="#FFFFFF" filter="url(#filter-11)" x="108" y="371" width="64" height="103"></rect>
                <rect id="Rectangle-path" fill="#3E3E3E" filter="url(#filter-12)" x="24" y="377" width="56" height="86"></rect>
                <rect id="Rectangle-path" fill="#3E3E3E" filter="url(#filter-13)" x="112" y="377" width="56" height="86"></rect>
            </g>
            <g id="house" transform="translate(608.000000, 114.000000)" sketch:type="MSShapeGroup">
                <rect id="Rectangle-path" fill="#999999" filter="url(#filter-14)" x="21" y="139" width="245" height="226"></rect>
                <path d="M216,352.733 C216,359.479 210.6,365 204,365 L83,365 C76.4,365 71,359.479 71,352.733 L71,193.267 C71,186.521 76.4,181 83,181 L204,181 C210.6,181 216,186.521 216,193.267 L216,352.733 L216,352.733 Z" id="Shape" fill="#3E3E3E" filter="url(#filter-15)"></path>
                <path d="M286,143 L143,0 L0,143 L286,143 Z" id="Shape" fill="#3E3E3E" filter="url(#filter-16)"></path>
                <circle id="Oval" fill="#FFFFFF" filter="url(#filter-17)" cx="145" cy="87" r="34"></circle>
                <rect id="Rectangle-path" fill="#3E3E3E" filter="url(#filter-18)" x="139" y="53" width="10" height="68"></rect>
                <rect id="Rectangle-path" fill="#3E3E3E" filter="url(#filter-19)" x="111" y="82" width="68" height="10"></rect>
                <path d="M203,350 C203,356 198.6,361 193.1,361 L92.9,361 C87.4,361 83,356.1 83,350 L83,207.3 C83,201.2 87.4,196 92.9,196 L193.1,196 C198.6,196 203,201.2 203,207.3 L203,350 L203,350 Z" id="Shape" fill="#FFFFFF" filter="url(#filter-20)"></path>
                <rect id="Rectangle-path" fill="#3E3E3E" filter="url(#filter-21)" x="139" y="196" width="10" height="94"></rect>
                <rect id="Rectangle-path" fill="#3E3E3E" filter="url(#filter-22)" x="83" y="242" width="120" height="10"></rect>
                <rect id="Rectangle-path" fill="#3E3E3E" x="76" y="290" width="135" height="72"></rect>
            </g>
            <g id="car" transform="translate(171.000000, 263.000000)" sketch:type="MSShapeGroup">
                <path d="M429,158.2 C429,163.1 422.6,167 414.8,167 L51.2,167 C43.4,167 17,158.9 17,154 L51,62 C51,57.1 65.9,34 73.8,34 L343.4,34 C351.2,34 357.6,37.9 357.6,42.8 L429,158.2 L429,158.2 Z" id="Shape" fill="#639495" filter="url(#filter-23)"></path>
                <path d="M313,132.5 C313,131.1 314.1,130 315.5,130 L315.5,130 C316.9,130 318,131.1 318,132.5 L318,142.5 C318,143.9 316.9,145 315.5,145 L315.5,145 C314.1,145 313,143.9 313,142.5 L313,132.5 L313,132.5 Z" id="Shape" fill="#639495"></path>
                <rect id="Rectangle-path" stroke="#3E3E3E" stroke-width="1.99996964" fill="#3E3E3E" transform="translate(367.088380, 10.623070) rotate(212.412307) translate(-367.088380, -10.623070) " x="366.488389" y="-1.22675012" width="1.19998178" height="23.6996402"></rect>
                <ellipse id="Oval" stroke="#3E3E3E" stroke-width="2.0000313" fill="#3E3E3E" transform="translate(359.446140, 19.381420) rotate(212.404399) translate(-359.446140, -19.381420) " cx="359.44614" cy="19.38142" rx="2.40003756" ry="3.20005008"></ellipse>
                <rect id="Rectangle-path" stroke="#3E3E3E" stroke-width="2.00000232" fill="#3E3E3E" transform="translate(379.720390, 18.740430) rotate(212.371000) translate(-379.720390, -18.740430) " x="379.120389" y="6.89041625" width="1.20000139" height="23.7000275"></rect>
                <ellipse id="Oval" stroke="#3E3E3E" stroke-width="1.99996964" fill="#3E3E3E" transform="translate(371.925100, 27.484020) rotate(212.412307) translate(-371.925100, -27.484020) " cx="371.9251" cy="27.48402" rx="2.39996357" ry="3.19995142"></ellipse>
                <rect id="Rectangle-path" stroke="#3E3E3E" stroke-width="1.99996964" fill="#3E3E3E" transform="translate(379.375600, 5.026380) rotate(122.412307) translate(-379.375600, -5.026380) " x="378.775609" y="-2.7735016" width="1.19998178" height="15.5997632"></rect>
                <path d="M383.8,146 L71.2,146 C64.5,146 59,143.3 59,140 L93.3,61 C93.3,57.7 98.7,55 105.5,55 L336.4,55 C343.1,55 348.6,57.7 348.6,61 L396,140 C396,143.3 390.6,146 383.8,146 Z" id="Shape" fill="#FFFFFF"></path>
                <g id="rose-head" transform="translate(241.000000, 82.000000)">
                    <path d="M53.7,66.5 L56,16.7 C56,9.2 46.5,0 39,0 L17.5,0 C10,0 0.5,9.2 0.5,16.7 L2.8,66.7 L53.7,66.5 L53.7,66.5 Z" id="Shape" fill="#3E3E3E" filter="url(#filter-24)"></path>
                    <path d="M35,68.7 C35,72.2 32.2,75 28.7,75 L28.4,75 C24.9,75 22.1,72.2 22.1,68.7 L22.1,60.4 C22.1,56.9 24.9,54.1 28.4,54.1 L28.7,54.1 C32.2,54.1 35,56.9 35,60.4 L35,68.7 L35,68.7 Z" id="Shape" fill="#F3E6D9" filter="url(#filter-25)"></path>
                    <path d="M50.5,31.7 C50.5,46.9 40.5,60.4 28.2,60.4 C15.9,60.4 5.9,46.9 5.9,31.7 L19.3,7.4 L28.3,10.2 L37.3,7.4 L50.5,31.7 L50.5,31.7 Z" id="Shape" fill="#F3E6D9" filter="url(#filter-26)"></path>
                    <circle id="Oval" fill="#3E3E3E" cx="20.6" cy="33.1" r="3.9"></circle>
                    <circle id="Oval" fill="#3E3E3E" cx="36.1" cy="33.1" r="3.9"></circle>
                    <path d="M31.9,41.9 L28.3,43.8 L24.8,41.9" id="Shape" stroke="#3E3E3E" stroke-width="3"></path>
                    <path d="M36.6,47.2 C36.6,48.6 32.9,51.3 28.3,51.3 C23.7,51.3 20,48.5 20,47.2 C20,45.8 23.7,48.6 28.3,48.6 C32.9,48.6 36.6,45.8 36.6,47.2 L36.6,47.2 Z" id="Shape" fill="#3E3E3E"></path>
                </g>
                <g id="matt-head" transform="translate(299.000000, 66.000000)">
                    <path d="M54.4,47.7 L60,26.7 C60,18.7 49.8,0.9 41.8,0.9 L18.7,0.9 C10.7,0.9 0.5,18.6 0.5,26.7 L5.6,47.8 L30.3,39.8 L54.4,47.7 L54.4,47.7 Z" id="Shape" fill="#FCDFA5" filter="url(#filter-27)"></path>
                    <path d="M36,79 C36,82.3 33.3,85 30,85 L30,85 C26.7,85 24,82.3 24,79 L24,71 C24,67.7 26.7,65 30,65 L30,65 C33.3,65 36,67.7 36,71 L36,79 L36,79 Z" id="Shape" fill="#F3E6D9" filter="url(#filter-28)"></path>
                    <path d="M52.6,40.9 C52.6,57.2 43.4,71.7 30.2,71.7 C17,71.7 7.8,57.2 7.8,40.9 L20.6,14.8 L30.2,17.8 L39.8,14.8 L52.6,40.9 L52.6,40.9 Z" id="Shape" fill="#F3E6D9" filter="url(#filter-29)"></path>
                    <ellipse id="Oval" fill="#F3E6D9" transform="translate(7.925920, 46.568800) rotate(152.837899) translate(-7.925920, -46.568800) " cx="7.92592" cy="46.5688" rx="3.89991876" ry="6.19987085"></ellipse>
                    <ellipse id="Oval" fill="#F3E6D9" transform="translate(53.006400, 46.588020) rotate(27.162101) translate(-53.006400, -46.588020) " cx="53.0064" cy="46.58802" rx="3.89991876" ry="6.19987085"></ellipse>
                    <path d="M28.5,44.2 C28.5,46.6 26.7,48.5 23.8,48.5 L16.3,48.5 C13.4,48.5 10.5,46.6 10.5,44.2 L10.5,42.4 C10.5,40 13.4,38.5 16.3,38.5 L23.8,38.5 C26.7,38.5 28.5,40 28.5,42.4 L28.5,44.2 L28.5,44.2 Z" id="Shape" stroke="#3E3E3E" stroke-width="3"></path>
                    <path d="M50.5,44.2 C50.5,46.6 47.7,48.5 44.8,48.5 L37.3,48.5 C34.4,48.5 32.5,46.6 32.5,44.2 L32.5,42.4 C32.5,40 34.4,38.5 37.3,38.5 L44.8,38.5 C47.7,38.5 50.5,40 50.5,42.4 L50.5,44.2 L50.5,44.2 Z" id="Shape" stroke="#3E3E3E" stroke-width="3"></path>
                    <path d="M21,43 C21,44.1 20.1,45 19,45 L19,45 C17.9,45 17,44.1 17,43 L17,43 C17,41.9 17.9,41 19,41 L19,41 C20.1,41 21,41.9 21,43 L21,43 L21,43 Z" id="Shape" fill="#3E3E3E"></path>
                    <path d="M43,43 C43,44.1 42.1,45 41,45 L41,45 C39.9,45 39,44.1 39,43 L39,43 C39,41.9 39.9,41 41,41 L41,41 C42.1,41 43,41.9 43,43 L43,43 L43,43 Z" id="Shape" fill="#3E3E3E"></path>
                    <path d="M3.4,39.8 C6.5,39.8 10.7,41.7 10.7,44" id="Shape" stroke="#3E3E3E" stroke-width="3"></path>
                    <path d="M57.5,39.8 C54.4,39.8 50.2,41.7 50.2,44" id="Shape" stroke="#3E3E3E" stroke-width="3"></path>
                    <path d="M28,43.5 L33,43.5" id="Shape" stroke="#3E3E3E" stroke-width="3"></path>
                    <path d="M33.5,54.5 L30.2,56.3 L26.8,54.5" id="Shape" stroke="#3E3E3E" stroke-width="3"></path>
                    <path d="M37.6,59.2 C37.6,60.3 34.5,62.6 30.7,62.6 C26.9,62.6 23.8,60.3 23.8,59.2 C23.8,58.1 26.9,60.3 30.7,60.3 C34.5,60.3 37.6,58.1 37.6,59.2 L37.6,59.2 Z" id="Shape" fill="#3E3E3E"></path>
                </g>
                <rect id="Rectangle-path" fill="#639495" filter="url(#filter-30)" x="221" y="55" width="13" height="180"></rect>
                <rect id="Rectangle-91" stroke="#8B572A" stroke-width="2" fill="#B9895F" filter="url(#filter-31)" x="70" y="113" width="104" height="57"></rect>
                <rect id="Rectangle-91" stroke="#8B572A" stroke-width="2" fill="#B9895F" filter="url(#filter-32)" x="134" y="66" width="66" height="57"></rect>
                <rect id="Rectangle-91" stroke="#8B572A" stroke-width="2" fill="#B9895F" filter="url(#filter-33)" x="115" y="102" width="104" height="57"></rect>
                <path d="M476,226.7 C476,234 469.7,240 461.9,240 L19.1,240 C11.3,240 5,234.1 5,226.7 L6.5,181.2 C6.5,173.9 14.8,145.9 22.6,145.9 L438.5,146.3 C446.3,146.3 476.6,178.2 476.6,185.6 L476,226.7 L476,226.7 Z" id="Shape" fill="#639495" filter="url(#filter-34)"></path>
                <rect id="Rectangle-path" fill="#3E3E3E" filter="url(#filter-35)" x="236" y="165" width="32" height="5"></rect>
                <rect id="Rectangle-path" fill="#3E3E3E" filter="url(#filter-36)" x="70" y="165" width="32" height="5"></rect>
                <path d="M38,185 C38,191.6 34.5,197 30.1,197 L17.2,197 C12.8,197 10,191.6 10,185 L14,169 C14,162.4 19.9,157 24.2,157 L32.1,157 C36.5,157 38,158.4 38,165 L38,185 L38,185 Z" id="Shape" fill="#FD665D" filter="url(#filter-37)"></path>
                <path d="M349.4,55 C356.1,55 359.6,51.7 359.6,55 L415,143 C415,146.3 408.6,145 401.8,145 L349.4,55 L349.4,55 Z" id="Shape" fill="#FFFFFF"></path>
                <path d="M90,56 C83.3,56 65,55.7 65,59 L31,143 C31,146.3 43.3,145 50,145 L90,56 L90,56 Z" id="Shape" fill="#FFFFFF"></path>
                <path d="M433,191 L433.5,155 L442.5,155.4 C450.3,155.4 473.6,184.3 473.6,191.7 L433,191 L433,191 Z" id="Shape" fill="#DFDFDF" filter="url(#filter-38)"></path>
                <path d="M482,210 C482,216.6 476.6,222 470,222 L12,222 C5.4,222 0,216.6 0,210 L0,203 C0,196.4 5.4,191 12,191 L470,191 C476.6,191 482,196.4 482,203 L482,210 L482,210 Z" id="Shape" fill="#3E3E3E" filter="url(#filter-39)"></path>
                <path d="M30,239 C30,204 58,176.5 92.5,176.5 C127,176.5 155,204 155,239 L30,239 L30,239 Z" id="Shape" fill="#639495"></path>
                <circle id="Oval" fill="#3E3E3E" filter="url(#filter-40)" cx="93" cy="240" r="50"></circle>
                <circle id="Oval" fill="#DFDFDF" filter="url(#filter-41)" cx="92" cy="241" r="28"></circle>
                <path d="M98.4,227.4 L92,224 L85.6,227.4" id="Shape" stroke="#3E3E3E" stroke-width="10"></path>
                <path d="M98.4,256 L92,259.4 L85.6,256" id="Shape" stroke="#3E3E3E" stroke-width="10"></path>
                <path d="M77.7,234.3 L74.3,240.7 L77.7,247.1" id="Shape" stroke="#3E3E3E" stroke-width="10"></path>
                <path d="M106.3,234.3 L109.7,240.7 L106.3,247.1" id="Shape" stroke="#3E3E3E" stroke-width="10"></path>
                <path d="M298,240 C298,205 326,177.5 360.5,177.5 C395,177.5 423,205 423,240 L298,240 L298,240 Z" id="Shape" fill="#639495"></path>
                <circle id="Oval" fill="#3E3E3E" filter="url(#filter-42)" cx="361" cy="239" r="50"></circle>
                <circle id="Oval" fill="#DFDFDF" filter="url(#filter-43)" cx="360" cy="240" r="28"></circle>
                <path d="M366.4,226.4 L360,223 L353.6,226.4" id="Shape" stroke="#3E3E3E" stroke-width="10"></path>
                <path d="M366.4,255 L360,258.4 L353.6,255" id="Shape" stroke="#3E3E3E" stroke-width="10"></path>
                <path d="M345.7,233.3 L342.3,239.7 L345.7,246.1" id="Shape" stroke="#3E3E3E" stroke-width="10"></path>
                <path d="M374.3,233.3 L377.7,239.7 L374.3,246.1" id="Shape" stroke="#3E3E3E" stroke-width="10"></path>
            </g>
            <rect id="Rectangle-path" stroke="#3E3E3E" stroke-width="1.99996964" fill="#3E3E3E" sketch:type="MSShapeGroup" transform="translate(527.088380, 236.623070) rotate(212.412307) translate(-527.088380, -236.623070) " x="526.488389" y="224.77325" width="1.19998178" height="23.6996402"></rect>
            <ellipse id="Oval" stroke="#3E3E3E" stroke-width="2.0000313" fill="#3E3E3E" sketch:type="MSShapeGroup" transform="translate(519.446140, 245.381420) rotate(212.404399) translate(-519.446140, -245.381420) " cx="519.44614" cy="245.38142" rx="2.40003756" ry="3.20005008"></ellipse>
            <rect id="Rectangle-path" stroke="#3E3E3E" stroke-width="2.00000232" fill="#3E3E3E" sketch:type="MSShapeGroup" transform="translate(539.720390, 244.740430) rotate(212.371000) translate(-539.720390, -244.740430) " x="539.120389" y="232.890416" width="1.20000139" height="23.7000275"></rect>
            <ellipse id="Oval" stroke="#3E3E3E" stroke-width="1.99996964" fill="#3E3E3E" sketch:type="MSShapeGroup" transform="translate(531.925100, 253.484020) rotate(212.412307) translate(-531.925100, -253.484020) " cx="531.9251" cy="253.48402" rx="2.39996357" ry="3.19995142"></ellipse>
            <rect id="Rectangle-path" stroke="#3E3E3E" stroke-width="1.99996964" fill="#3E3E3E" sketch:type="MSShapeGroup" transform="translate(539.375600, 231.026380) rotate(122.412307) translate(-539.375600, -231.026380) " x="538.775609" y="223.226498" width="1.19998178" height="15.5997632"></rect>
        </g>
    </g>
</svg>